<mxfile host="app.diagrams.net" agent="Mozilla/5.0 (Windows NT 10.0; Win64; x64) AppleWebKit/537.36 (KHTML, like Gecko) Chrome/131.0.0.0 Safari/537.36" version="26.0.2">
  <diagram name="Page-1" id="z32n40Bh7zNvW0WQxbJr">
    <mxGraphModel grid="1" page="1" gridSize="10" guides="1" tooltips="1" connect="1" arrows="1" fold="1" pageScale="1" pageWidth="1800" pageHeight="950" math="0" shadow="0">
      <root>
        <mxCell id="0" />
        <mxCell id="1" parent="0" />
        <mxCell id="ACI5QrZLQ97RPdGaOp1O-54" value="PROSES PATCHING WAVE (x)" style="text;html=1;align=center;verticalAlign=middle;resizable=0;points=[];autosize=1;strokeColor=none;fillColor=none;fontStyle=1;fontSize=15;" vertex="1" parent="1">
          <mxGeometry x="30" y="40" width="230" height="30" as="geometry" />
        </mxCell>
        <mxCell id="udtV1CsJPvHy8_Dd39ew-2" value="&lt;div&gt;&lt;span style=&quot;background-color: transparent; color: light-dark(rgb(0, 0, 0), rgb(255, 255, 255));&quot;&gt;&lt;font style=&quot;font-size: 9px;&quot;&gt;- Blast Email jadwal PROD (reminder)&lt;/font&gt;&lt;/span&gt;&lt;/div&gt;&lt;div&gt;&lt;font style=&quot;font-size: 9px;&quot;&gt;- Circulate approval patching PROD ke PIC&lt;/font&gt;&lt;/div&gt;" style="shape=document;whiteSpace=wrap;html=1;boundedLbl=1;align=left;" vertex="1" parent="1">
          <mxGeometry x="995.1022656010307" y="87.3878226675202" width="240.08054078932352" height="76.16121773324797" as="geometry" />
        </mxCell>
        <mxCell id="udtV1CsJPvHy8_Dd39ew-3" value="&lt;font style=&quot;font-size: 10px;&quot;&gt;assessment agent owner&lt;/font&gt;" style="rounded=0;whiteSpace=wrap;html=1;" vertex="1" parent="1">
          <mxGeometry x="1037.973790741981" y="201.62964926739215" width="154.33749050742227" height="50.774145155498644" as="geometry" />
        </mxCell>
        <mxCell id="udtV1CsJPvHy8_Dd39ew-4" value="&lt;font style=&quot;font-size: 11px;&quot;&gt;compatibility&lt;/font&gt;" style="rhombus;whiteSpace=wrap;html=1;" vertex="1" parent="1">
          <mxGeometry x="1063.6967058265518" y="290.4844032895148" width="102.89166033828151" height="76.16121773324797" as="geometry" />
        </mxCell>
        <mxCell id="udtV1CsJPvHy8_Dd39ew-5" value="&lt;font style=&quot;font-size: 10px;&quot;&gt;proses&amp;nbsp;&lt;/font&gt;&lt;div&gt;&lt;font style=&quot;font-size: 10px;&quot;&gt;upgrade&lt;/font&gt;&lt;/div&gt;&lt;div&gt;&lt;font style=&quot;font-size: 10px;&quot;&gt;agent&lt;/font&gt;&lt;/div&gt;" style="rounded=0;whiteSpace=wrap;html=1;" vertex="1" parent="1">
          <mxGeometry x="1230" y="298.55" width="65.26" height="57.61" as="geometry" />
        </mxCell>
        <mxCell id="udtV1CsJPvHy8_Dd39ew-6" value="&lt;font style=&quot;font-size: 11px;&quot;&gt;Prechecking 1&lt;/font&gt;&lt;div&gt;&lt;font style=&quot;font-size: 11px;&quot;&gt;PID&lt;/font&gt;&lt;/div&gt;" style="shape=document;whiteSpace=wrap;html=1;boundedLbl=1;" vertex="1" parent="1">
          <mxGeometry x="1037.973790741981" y="419.9962298893867" width="154.33749050742227" height="76.16121773324797" as="geometry" />
        </mxCell>
        <mxCell id="udtV1CsJPvHy8_Dd39ew-7" value="&lt;font style=&quot;font-size: 10px;&quot;&gt;check result&lt;/font&gt;&lt;div&gt;&lt;font style=&quot;font-size: 10px;&quot;&gt;precheck 1&lt;/font&gt;&lt;/div&gt;" style="rhombus;whiteSpace=wrap;html=1;" vertex="1" parent="1">
          <mxGeometry x="1063.6967058265518" y="531.6615927781334" width="102.89166033828151" height="76.16121773324797" as="geometry" />
        </mxCell>
        <mxCell id="udtV1CsJPvHy8_Dd39ew-8" value="&lt;font style=&quot;font-size: 10px;&quot;&gt;email ke custodian&lt;/font&gt;&lt;div&gt;&lt;font style=&quot;font-size: 10px;&quot;&gt;untuk housekeep&lt;/font&gt;&lt;/div&gt;" style="rounded=0;whiteSpace=wrap;html=1;" vertex="1" parent="1">
          <mxGeometry x="1217.8500000000001" y="524.74" width="89.56" height="90" as="geometry" />
        </mxCell>
        <mxCell id="udtV1CsJPvHy8_Dd39ew-9" value="" style="edgeStyle=orthogonalEdgeStyle;rounded=0;orthogonalLoop=1;jettySize=auto;html=1;exitX=0.503;exitY=0.855;exitDx=0;exitDy=0;exitPerimeter=0;" edge="1" parent="1" source="udtV1CsJPvHy8_Dd39ew-10" target="udtV1CsJPvHy8_Dd39ew-29">
          <mxGeometry relative="1" as="geometry" />
        </mxCell>
        <mxCell id="udtV1CsJPvHy8_Dd39ew-10" value="&lt;font style=&quot;font-size: 11px;&quot;&gt;Prechecking 2&lt;/font&gt;&lt;div&gt;&lt;font style=&quot;font-size: 11px;&quot;&gt;PID&lt;/font&gt;&lt;/div&gt;" style="shape=document;whiteSpace=wrap;html=1;boundedLbl=1;" vertex="1" parent="1">
          <mxGeometry x="1037.973790741981" y="669.99695566688" width="154.33749050742227" height="76.16121773324797" as="geometry" />
        </mxCell>
        <mxCell id="udtV1CsJPvHy8_Dd39ew-11" value="&lt;font style=&quot;font-size: 10px;&quot;&gt;Proses Patching PROD&lt;/font&gt;" style="shape=document;whiteSpace=wrap;html=1;boundedLbl=1;" vertex="1" parent="1">
          <mxGeometry x="1446.8491888160147" y="368.0736438552612" width="154.33749050742227" height="76.16121773324797" as="geometry" />
        </mxCell>
        <mxCell id="udtV1CsJPvHy8_Dd39ew-12" value="&lt;font style=&quot;font-size: 11px;&quot;&gt;Verifikasi&lt;/font&gt;" style="rhombus;whiteSpace=wrap;html=1;" vertex="1" parent="1">
          <mxGeometry x="1472.5721039005848" y="469.6219341662585" width="102.89166033828151" height="76.16121773324797" as="geometry" />
        </mxCell>
        <mxCell id="udtV1CsJPvHy8_Dd39ew-13" value="&lt;font style=&quot;font-size: 10px;&quot;&gt;Rollback&lt;/font&gt;&lt;div&gt;&lt;font style=&quot;font-size: 10px;&quot;&gt;Reschedule&lt;/font&gt;&lt;/div&gt;&lt;div&gt;&lt;font style=&quot;font-size: 10px;&quot;&gt;atau VRA&lt;/font&gt;&lt;/div&gt;" style="rounded=0;whiteSpace=wrap;html=1;" vertex="1" parent="1">
          <mxGeometry x="1652.63" y="482.32000000000005" width="67.37" height="50.77" as="geometry" />
        </mxCell>
        <mxCell id="udtV1CsJPvHy8_Dd39ew-14" value="&lt;font style=&quot;font-size: 10px;&quot;&gt;Tim Patch sent PROD Sign Off ke custodian&lt;/font&gt;" style="shape=document;whiteSpace=wrap;html=1;boundedLbl=1;" vertex="1" parent="1">
          <mxGeometry x="1446.8491888160147" y="609.2508333438795" width="154.33749050742227" height="76.16121773324797" as="geometry" />
        </mxCell>
        <mxCell id="udtV1CsJPvHy8_Dd39ew-15" value="" style="edgeStyle=orthogonalEdgeStyle;rounded=0;orthogonalLoop=1;jettySize=auto;html=1;" edge="1" parent="1" source="udtV1CsJPvHy8_Dd39ew-16" target="udtV1CsJPvHy8_Dd39ew-46">
          <mxGeometry relative="1" as="geometry" />
        </mxCell>
        <mxCell id="udtV1CsJPvHy8_Dd39ew-16" value="&lt;font style=&quot;font-size: 10px;&quot;&gt;PROD Sign off full assign&lt;/font&gt;&lt;div&gt;&lt;font style=&quot;font-size: 10px;&quot;&gt;dari custodian&lt;/font&gt;&lt;/div&gt;" style="strokeWidth=1;html=1;shape=mxgraph.flowchart.multi-document;whiteSpace=wrap;align=left;" vertex="1" parent="1">
          <mxGeometry x="1448.5640498216528" y="761.5732688103757" width="150.90776849614622" height="76.16121773324797" as="geometry" />
        </mxCell>
        <mxCell id="udtV1CsJPvHy8_Dd39ew-18" value="" style="endArrow=classic;html=1;rounded=0;exitX=0.502;exitY=0.86;exitDx=0;exitDy=0;exitPerimeter=0;entryX=0.5;entryY=0;entryDx=0;entryDy=0;" edge="1" parent="1" source="udtV1CsJPvHy8_Dd39ew-2" target="udtV1CsJPvHy8_Dd39ew-3">
          <mxGeometry width="50" height="50" relative="1" as="geometry">
            <mxPoint x="1020.8251806856008" y="252.40379442289077" as="sourcePoint" />
            <mxPoint x="1106.5682309675024" y="188.9361129785175" as="targetPoint" />
          </mxGeometry>
        </mxCell>
        <mxCell id="udtV1CsJPvHy8_Dd39ew-19" value="" style="endArrow=classic;html=1;rounded=0;exitX=0.5;exitY=1;exitDx=0;exitDy=0;entryX=0.5;entryY=0;entryDx=0;entryDy=0;" edge="1" parent="1" source="udtV1CsJPvHy8_Dd39ew-3" target="udtV1CsJPvHy8_Dd39ew-4">
          <mxGeometry width="50" height="50" relative="1" as="geometry">
            <mxPoint x="1020.8251806856008" y="404.72622988938673" as="sourcePoint" />
            <mxPoint x="1106.5682309675024" y="341.2585484450134" as="targetPoint" />
          </mxGeometry>
        </mxCell>
        <mxCell id="udtV1CsJPvHy8_Dd39ew-20" value="" style="endArrow=classic;html=1;rounded=0;exitX=1;exitY=0.5;exitDx=0;exitDy=0;entryX=0;entryY=0.5;entryDx=0;entryDy=0;" edge="1" parent="1" source="udtV1CsJPvHy8_Dd39ew-4" target="udtV1CsJPvHy8_Dd39ew-5">
          <mxGeometry width="50" height="50" relative="1" as="geometry">
            <mxPoint x="1020.8251806856008" y="404.72622988938673" as="sourcePoint" />
            <mxPoint x="1106.5682309675024" y="341.2585484450134" as="targetPoint" />
          </mxGeometry>
        </mxCell>
        <mxCell id="udtV1CsJPvHy8_Dd39ew-21" value="NO" style="edgeLabel;html=1;align=center;verticalAlign=middle;resizable=0;points=[];" connectable="0" vertex="1" parent="udtV1CsJPvHy8_Dd39ew-20">
          <mxGeometry x="-0.3143" relative="1" as="geometry">
            <mxPoint as="offset" />
          </mxGeometry>
        </mxCell>
        <mxCell id="udtV1CsJPvHy8_Dd39ew-22" value="" style="endArrow=classic;html=1;rounded=0;exitX=0.5;exitY=1;exitDx=0;exitDy=0;entryX=0.5;entryY=0;entryDx=0;entryDy=0;" edge="1" parent="1" source="udtV1CsJPvHy8_Dd39ew-4" target="udtV1CsJPvHy8_Dd39ew-6">
          <mxGeometry width="50" height="50" relative="1" as="geometry">
            <mxPoint x="1020.8251806856008" y="404.72622988938673" as="sourcePoint" />
            <mxPoint x="1106.5682309675024" y="341.2585484450134" as="targetPoint" />
          </mxGeometry>
        </mxCell>
        <mxCell id="udtV1CsJPvHy8_Dd39ew-23" value="YES" style="edgeLabel;html=1;align=center;verticalAlign=middle;resizable=0;points=[];" connectable="0" vertex="1" parent="udtV1CsJPvHy8_Dd39ew-22">
          <mxGeometry x="-0.3429" y="1" relative="1" as="geometry">
            <mxPoint as="offset" />
          </mxGeometry>
        </mxCell>
        <mxCell id="udtV1CsJPvHy8_Dd39ew-24" value="" style="endArrow=classic;html=1;rounded=0;exitX=0.497;exitY=0.864;exitDx=0;exitDy=0;exitPerimeter=0;" edge="1" parent="1" source="udtV1CsJPvHy8_Dd39ew-6" target="udtV1CsJPvHy8_Dd39ew-7">
          <mxGeometry width="50" height="50" relative="1" as="geometry">
            <mxPoint x="1020.8251806856008" y="480.8874476226347" as="sourcePoint" />
            <mxPoint x="1106.5682309675024" y="417.41976617826134" as="targetPoint" />
          </mxGeometry>
        </mxCell>
        <mxCell id="udtV1CsJPvHy8_Dd39ew-25" value="" style="endArrow=classic;html=1;rounded=0;exitX=1;exitY=0.5;exitDx=0;exitDy=0;entryX=0;entryY=0.5;entryDx=0;entryDy=0;" edge="1" parent="1" source="udtV1CsJPvHy8_Dd39ew-7" target="udtV1CsJPvHy8_Dd39ew-8">
          <mxGeometry width="50" height="50" relative="1" as="geometry">
            <mxPoint x="1020.8251806856008" y="480.8874476226347" as="sourcePoint" />
            <mxPoint x="1106.5682309675024" y="417.41976617826134" as="targetPoint" />
          </mxGeometry>
        </mxCell>
        <mxCell id="udtV1CsJPvHy8_Dd39ew-26" value="NO" style="edgeLabel;html=1;align=center;verticalAlign=middle;resizable=0;points=[];" connectable="0" vertex="1" parent="udtV1CsJPvHy8_Dd39ew-25">
          <mxGeometry x="-0.1065" relative="1" as="geometry">
            <mxPoint as="offset" />
          </mxGeometry>
        </mxCell>
        <mxCell id="udtV1CsJPvHy8_Dd39ew-27" value="" style="endArrow=classic;html=1;rounded=0;exitX=0.5;exitY=1;exitDx=0;exitDy=0;entryX=0.5;entryY=0;entryDx=0;entryDy=0;" edge="1" parent="1" source="udtV1CsJPvHy8_Dd39ew-7" target="udtV1CsJPvHy8_Dd39ew-10">
          <mxGeometry width="50" height="50" relative="1" as="geometry">
            <mxPoint x="1020.8251806856008" y="696.677564533504" as="sourcePoint" />
            <mxPoint x="1106.5682309675024" y="633.2098830891307" as="targetPoint" />
          </mxGeometry>
        </mxCell>
        <mxCell id="udtV1CsJPvHy8_Dd39ew-28" value="YES" style="edgeLabel;html=1;align=center;verticalAlign=middle;resizable=0;points=[];" connectable="0" vertex="1" parent="udtV1CsJPvHy8_Dd39ew-27">
          <mxGeometry x="-0.1545" relative="1" as="geometry">
            <mxPoint as="offset" />
          </mxGeometry>
        </mxCell>
        <mxCell id="udtV1CsJPvHy8_Dd39ew-29" value="&lt;font style=&quot;font-size: 10px;&quot;&gt;Raise CRQ Patching PROD&lt;/font&gt;&lt;div&gt;&lt;font style=&quot;font-size: 10px;&quot;&gt;PID&lt;/font&gt;&lt;/div&gt;" style="rounded=0;whiteSpace=wrap;html=1;" vertex="1" parent="1">
          <mxGeometry x="1020.8251806856008" y="798.2258548445013" width="188.63471062018277" height="50.774145155498644" as="geometry" />
        </mxCell>
        <mxCell id="udtV1CsJPvHy8_Dd39ew-30" value="" style="endArrow=classic;html=1;rounded=0;exitX=0.503;exitY=0.84;exitDx=0;exitDy=0;exitPerimeter=0;entryX=0.5;entryY=0;entryDx=0;entryDy=0;" edge="1" parent="1" source="udtV1CsJPvHy8_Dd39ew-11" target="udtV1CsJPvHy8_Dd39ew-12">
          <mxGeometry width="50" height="50" relative="1" as="geometry">
            <mxPoint x="1566.8894592106765" y="596.557297055005" as="sourcePoint" />
            <mxPoint x="1652.6325094925776" y="533.0896156106318" as="targetPoint" />
          </mxGeometry>
        </mxCell>
        <mxCell id="udtV1CsJPvHy8_Dd39ew-31" value="" style="endArrow=classic;html=1;rounded=0;exitX=0.5;exitY=1;exitDx=0;exitDy=0;entryX=0.5;entryY=0;entryDx=0;entryDy=0;" edge="1" parent="1" source="udtV1CsJPvHy8_Dd39ew-12" target="udtV1CsJPvHy8_Dd39ew-14">
          <mxGeometry width="50" height="50" relative="1" as="geometry">
            <mxPoint x="1566.8894592106765" y="596.557297055005" as="sourcePoint" />
            <mxPoint x="1652.6325094925776" y="533.0896156106318" as="targetPoint" />
          </mxGeometry>
        </mxCell>
        <mxCell id="udtV1CsJPvHy8_Dd39ew-32" value="YES" style="edgeLabel;html=1;align=center;verticalAlign=middle;resizable=0;points=[];" connectable="0" vertex="1" parent="udtV1CsJPvHy8_Dd39ew-31">
          <mxGeometry x="-0.24" relative="1" as="geometry">
            <mxPoint as="offset" />
          </mxGeometry>
        </mxCell>
        <mxCell id="udtV1CsJPvHy8_Dd39ew-33" value="" style="endArrow=classic;html=1;rounded=0;exitX=0.503;exitY=0.874;exitDx=0;exitDy=0;exitPerimeter=0;entryX=0.5;entryY=0;entryDx=0;entryDy=0;entryPerimeter=0;" edge="1" parent="1" source="udtV1CsJPvHy8_Dd39ew-14" target="udtV1CsJPvHy8_Dd39ew-16">
          <mxGeometry width="50" height="50" relative="1" as="geometry">
            <mxPoint x="1566.8894592106765" y="748.8797325215008" as="sourcePoint" />
            <mxPoint x="1652.6325094925776" y="685.4120510771276" as="targetPoint" />
          </mxGeometry>
        </mxCell>
        <mxCell id="udtV1CsJPvHy8_Dd39ew-34" value="" style="endArrow=classic;html=1;rounded=0;exitX=1;exitY=0.5;exitDx=0;exitDy=0;entryX=0;entryY=0.5;entryDx=0;entryDy=0;" edge="1" parent="1" source="udtV1CsJPvHy8_Dd39ew-12" target="udtV1CsJPvHy8_Dd39ew-13">
          <mxGeometry width="50" height="50" relative="1" as="geometry">
            <mxPoint x="1566.8894592106765" y="748.8797325215008" as="sourcePoint" />
            <mxPoint x="1652.6325094925776" y="685.4120510771276" as="targetPoint" />
          </mxGeometry>
        </mxCell>
        <mxCell id="udtV1CsJPvHy8_Dd39ew-35" value="NO" style="edgeLabel;html=1;align=center;verticalAlign=middle;resizable=0;points=[];" connectable="0" vertex="1" parent="udtV1CsJPvHy8_Dd39ew-34">
          <mxGeometry x="-0.2127" y="2" relative="1" as="geometry">
            <mxPoint as="offset" />
          </mxGeometry>
        </mxCell>
        <mxCell id="udtV1CsJPvHy8_Dd39ew-36" value="&lt;font style=&quot;font-size: 10px;&quot;&gt;Proses CCB dengan tim CCM&lt;/font&gt;" style="shape=document;whiteSpace=wrap;html=1;boundedLbl=1;" vertex="1" parent="1">
          <mxGeometry x="1446.8491888160147" y="136.4166065832986" width="154.33749050742227" height="76.16121773324797" as="geometry" />
        </mxCell>
        <mxCell id="udtV1CsJPvHy8_Dd39ew-37" value="" style="edgeStyle=orthogonalEdgeStyle;rounded=0;orthogonalLoop=1;jettySize=auto;html=1;" edge="1" parent="1" source="udtV1CsJPvHy8_Dd39ew-39" target="udtV1CsJPvHy8_Dd39ew-11">
          <mxGeometry relative="1" as="geometry" />
        </mxCell>
        <mxCell id="udtV1CsJPvHy8_Dd39ew-38" value="YES" style="edgeLabel;html=1;align=center;verticalAlign=middle;resizable=0;points=[];" connectable="0" vertex="1" parent="udtV1CsJPvHy8_Dd39ew-37">
          <mxGeometry x="-0.2369" y="1" relative="1" as="geometry">
            <mxPoint as="offset" />
          </mxGeometry>
        </mxCell>
        <mxCell id="udtV1CsJPvHy8_Dd39ew-39" value="&lt;font style=&quot;font-size: 10px;&quot;&gt;Approval CCB&lt;/font&gt;" style="rhombus;whiteSpace=wrap;html=1;" vertex="1" parent="1">
          <mxGeometry x="1472.5721039005848" y="237.96489689429592" width="102.89166033828151" height="76.16121773324797" as="geometry" />
        </mxCell>
        <mxCell id="udtV1CsJPvHy8_Dd39ew-40" value="&lt;font style=&quot;font-size: 10px;&quot;&gt;Reschedule&lt;/font&gt;" style="rounded=0;whiteSpace=wrap;html=1;" vertex="1" parent="1">
          <mxGeometry x="1652.63" y="250.66000000000003" width="67.37" height="50.77" as="geometry" />
        </mxCell>
        <mxCell id="udtV1CsJPvHy8_Dd39ew-41" value="" style="endArrow=classic;html=1;rounded=0;exitX=0.503;exitY=0.84;exitDx=0;exitDy=0;exitPerimeter=0;entryX=0.5;entryY=0;entryDx=0;entryDy=0;" edge="1" parent="1" source="udtV1CsJPvHy8_Dd39ew-36" target="udtV1CsJPvHy8_Dd39ew-39">
          <mxGeometry width="50" height="50" relative="1" as="geometry">
            <mxPoint x="1566.8894592106765" y="364.9002597830425" as="sourcePoint" />
            <mxPoint x="1652.6325094925776" y="301.4325783386692" as="targetPoint" />
          </mxGeometry>
        </mxCell>
        <mxCell id="udtV1CsJPvHy8_Dd39ew-42" value="" style="endArrow=classic;html=1;rounded=0;exitX=1;exitY=0.5;exitDx=0;exitDy=0;entryX=0;entryY=0.5;entryDx=0;entryDy=0;" edge="1" parent="1" source="udtV1CsJPvHy8_Dd39ew-39" target="udtV1CsJPvHy8_Dd39ew-40">
          <mxGeometry width="50" height="50" relative="1" as="geometry">
            <mxPoint x="1566.8894592106765" y="517.2226952495383" as="sourcePoint" />
            <mxPoint x="1652.6325094925776" y="453.7550138051651" as="targetPoint" />
          </mxGeometry>
        </mxCell>
        <mxCell id="udtV1CsJPvHy8_Dd39ew-43" value="NO" style="edgeLabel;html=1;align=center;verticalAlign=middle;resizable=0;points=[];" connectable="0" vertex="1" parent="udtV1CsJPvHy8_Dd39ew-42">
          <mxGeometry x="-0.2127" y="2" relative="1" as="geometry">
            <mxPoint as="offset" />
          </mxGeometry>
        </mxCell>
        <mxCell id="udtV1CsJPvHy8_Dd39ew-44" value="" style="endArrow=classic;html=1;rounded=0;exitX=0.5;exitY=0;exitDx=0;exitDy=0;entryX=1.001;entryY=0.347;entryDx=0;entryDy=0;entryPerimeter=0;" edge="1" parent="1" source="udtV1CsJPvHy8_Dd39ew-40" target="udtV1CsJPvHy8_Dd39ew-2">
          <mxGeometry width="50" height="50" relative="1" as="geometry">
            <mxPoint x="1666.3451344807274" y="368.068407771542" as="sourcePoint" />
            <mxPoint x="1260" y="112" as="targetPoint" />
            <Array as="points">
              <mxPoint x="1686" y="112" />
              <mxPoint x="1510" y="112" />
              <mxPoint x="1420" y="112" />
            </Array>
          </mxGeometry>
        </mxCell>
        <mxCell id="udtV1CsJPvHy8_Dd39ew-45" value="" style="endArrow=classic;html=1;rounded=0;exitX=1;exitY=0.5;exitDx=0;exitDy=0;entryX=-0.006;entryY=0.442;entryDx=0;entryDy=0;entryPerimeter=0;" edge="1" parent="1" source="udtV1CsJPvHy8_Dd39ew-29" target="udtV1CsJPvHy8_Dd39ew-36">
          <mxGeometry width="50" height="50" relative="1" as="geometry">
            <mxPoint x="1666.3451344807274" y="368.068407771542" as="sourcePoint" />
            <mxPoint x="1450" y="171" as="targetPoint" />
            <Array as="points">
              <mxPoint x="1390" y="824" />
              <mxPoint x="1390" y="170" />
            </Array>
          </mxGeometry>
        </mxCell>
        <mxCell id="udtV1CsJPvHy8_Dd39ew-46" value="&lt;font&gt;END&lt;/font&gt;" style="rounded=1;whiteSpace=wrap;html=1;" vertex="1" parent="1">
          <mxGeometry x="1652.63" y="781.1" width="87.28" height="37.1" as="geometry" />
        </mxCell>
        <mxCell id="ACI5QrZLQ97RPdGaOp1O-20" value="&lt;font style=&quot;font-size: 10px;&quot;&gt;Proses Patching UAT&lt;/font&gt;" style="shape=document;whiteSpace=wrap;html=1;boundedLbl=1;" vertex="1" parent="1">
          <mxGeometry x="695.663932056383" y="150.0014074543925" width="120.122361646057" height="59.2769477725316" as="geometry" />
        </mxCell>
        <mxCell id="ACI5QrZLQ97RPdGaOp1O-21" value="&lt;font style=&quot;font-size: 10px;&quot;&gt;Verifikasi&lt;/font&gt;" style="rhombus;whiteSpace=wrap;html=1;" vertex="1" parent="1">
          <mxGeometry x="715.6843256640591" y="229.037337817768" width="80.08157443070468" height="59.2769477725316" as="geometry" />
        </mxCell>
        <mxCell id="ACI5QrZLQ97RPdGaOp1O-22" value="&lt;font style=&quot;font-size: 10px;&quot;&gt;Rollback&lt;/font&gt;&lt;div&gt;&lt;font style=&quot;font-size: 10px;&quot;&gt;Reschedule&lt;/font&gt;&lt;div&gt;&lt;font style=&quot;font-size: 10px;&quot;&gt;VRA&lt;/font&gt;&lt;/div&gt;&lt;/div&gt;" style="rounded=0;whiteSpace=wrap;html=1;" vertex="1" parent="1">
          <mxGeometry x="855.83" y="227.23" width="74.17" height="61.08" as="geometry" />
        </mxCell>
        <mxCell id="ACI5QrZLQ97RPdGaOp1O-23" value="&lt;font style=&quot;font-size: 10px;&quot;&gt;Tim Patch sent UAT Sign Off ke custodian&lt;/font&gt;" style="shape=document;whiteSpace=wrap;html=1;boundedLbl=1;" vertex="1" parent="1">
          <mxGeometry x="695.653932056383" y="346.47174206740925" width="120.122361646057" height="59.2769477725316" as="geometry" />
        </mxCell>
        <mxCell id="o1_TLwKkLksBD2rPDxH1-2" value="" style="edgeStyle=orthogonalEdgeStyle;rounded=0;orthogonalLoop=1;jettySize=auto;html=1;exitX=0.5;exitY=0.88;exitDx=0;exitDy=0;exitPerimeter=0;entryX=0.5;entryY=0;entryDx=0;entryDy=0;" edge="1" parent="1" source="ACI5QrZLQ97RPdGaOp1O-24" target="udtV1CsJPvHy8_Dd39ew-1">
          <mxGeometry relative="1" as="geometry">
            <mxPoint x="755.7251128794115" y="569.3858129450538" as="targetPoint" />
          </mxGeometry>
        </mxCell>
        <mxCell id="ACI5QrZLQ97RPdGaOp1O-24" value="&lt;font style=&quot;font-size: 11px;&quot;&gt;UAT Sign off full assign&lt;/font&gt;&lt;div&gt;&lt;font style=&quot;font-size: 11px;&quot;&gt;dari custodian&lt;/font&gt;&lt;/div&gt;" style="strokeWidth=1;html=1;shape=mxgraph.flowchart.multi-document;whiteSpace=wrap;align=left;" vertex="1" parent="1">
          <mxGeometry x="689.22" y="451.67" width="133" height="78.4" as="geometry" />
        </mxCell>
        <mxCell id="ACI5QrZLQ97RPdGaOp1O-47" value="" style="endArrow=classic;html=1;rounded=0;exitX=1;exitY=0.5;exitDx=0;exitDy=0;entryX=-0.017;entryY=0.431;entryDx=0;entryDy=0;entryPerimeter=0;" edge="1" parent="1" source="ACI5QrZLQ97RPdGaOp1O-45" target="ACI5QrZLQ97RPdGaOp1O-20">
          <mxGeometry width="50" height="50" relative="1" as="geometry">
            <mxPoint x="849.0924355588717" y="668.3419025888646" as="sourcePoint" />
            <mxPoint x="715.6231448410306" y="253.40326818114346" as="targetPoint" />
            <Array as="points">
              <mxPoint x="660" y="780" />
              <mxPoint x="660" y="176" />
            </Array>
          </mxGeometry>
        </mxCell>
        <mxCell id="ACI5QrZLQ97RPdGaOp1O-48" value="" style="endArrow=classic;html=1;rounded=0;exitX=0.503;exitY=0.84;exitDx=0;exitDy=0;exitPerimeter=0;entryX=0.5;entryY=0;entryDx=0;entryDy=0;" edge="1" parent="1" source="ACI5QrZLQ97RPdGaOp1O-20" target="ACI5QrZLQ97RPdGaOp1O-21">
          <mxGeometry width="50" height="50" relative="1" as="geometry">
            <mxPoint x="789.0924355588717" y="327.8322507719873" as="sourcePoint" />
            <mxPoint x="855.8270809177923" y="278.43479429487763" as="targetPoint" />
          </mxGeometry>
        </mxCell>
        <mxCell id="ACI5QrZLQ97RPdGaOp1O-49" value="" style="endArrow=classic;html=1;rounded=0;exitX=0.5;exitY=1;exitDx=0;exitDy=0;entryX=0.5;entryY=0;entryDx=0;entryDy=0;" edge="1" parent="1" source="ACI5QrZLQ97RPdGaOp1O-21" target="ACI5QrZLQ97RPdGaOp1O-23">
          <mxGeometry width="50" height="50" relative="1" as="geometry">
            <mxPoint x="789.0924355588717" y="327.8322507719873" as="sourcePoint" />
            <mxPoint x="855.8270809177923" y="278.43479429487763" as="targetPoint" />
          </mxGeometry>
        </mxCell>
        <mxCell id="ACI5QrZLQ97RPdGaOp1O-53" value="YES" style="edgeLabel;html=1;align=center;verticalAlign=middle;resizable=0;points=[];" connectable="0" vertex="1" parent="ACI5QrZLQ97RPdGaOp1O-49">
          <mxGeometry x="-0.24" relative="1" as="geometry">
            <mxPoint as="offset" />
          </mxGeometry>
        </mxCell>
        <mxCell id="ACI5QrZLQ97RPdGaOp1O-50" value="" style="endArrow=classic;html=1;rounded=0;exitX=0.503;exitY=0.874;exitDx=0;exitDy=0;exitPerimeter=0;entryX=0.5;entryY=0;entryDx=0;entryDy=0;entryPerimeter=0;" edge="1" parent="1" source="ACI5QrZLQ97RPdGaOp1O-23" target="ACI5QrZLQ97RPdGaOp1O-24">
          <mxGeometry width="50" height="50" relative="1" as="geometry">
            <mxPoint x="789.0924355588717" y="446.38614631705053" as="sourcePoint" />
            <mxPoint x="855.8270809177923" y="396.9886898399409" as="targetPoint" />
          </mxGeometry>
        </mxCell>
        <mxCell id="ACI5QrZLQ97RPdGaOp1O-51" value="" style="endArrow=classic;html=1;rounded=0;exitX=1;exitY=0.5;exitDx=0;exitDy=0;entryX=0;entryY=0.5;entryDx=0;entryDy=0;" edge="1" parent="1" source="ACI5QrZLQ97RPdGaOp1O-21" target="ACI5QrZLQ97RPdGaOp1O-22">
          <mxGeometry width="50" height="50" relative="1" as="geometry">
            <mxPoint x="789.0924355588717" y="446.38614631705053" as="sourcePoint" />
            <mxPoint x="855.8270809177923" y="396.9886898399409" as="targetPoint" />
          </mxGeometry>
        </mxCell>
        <mxCell id="ACI5QrZLQ97RPdGaOp1O-52" value="NO" style="edgeLabel;html=1;align=center;verticalAlign=middle;resizable=0;points=[];" connectable="0" vertex="1" parent="ACI5QrZLQ97RPdGaOp1O-51">
          <mxGeometry x="-0.2127" y="2" relative="1" as="geometry">
            <mxPoint as="offset" />
          </mxGeometry>
        </mxCell>
        <mxCell id="udtV1CsJPvHy8_Dd39ew-1" value="&lt;font style=&quot;font-size: 10px;&quot;&gt;Scheduling Patching PROD&lt;/font&gt;&lt;div&gt;&lt;font style=&quot;font-size: 10px;&quot;&gt;WAVE (x)&lt;/font&gt;&lt;/div&gt;" style="rounded=0;whiteSpace=wrap;html=1;" vertex="1" parent="1">
          <mxGeometry x="678.5553888644267" y="613.3207180820367" width="154.33749050742227" height="50.774145155498644" as="geometry" />
        </mxCell>
        <mxCell id="udtV1CsJPvHy8_Dd39ew-47" value="" style="endArrow=classic;html=1;rounded=0;exitX=1;exitY=0.5;exitDx=0;exitDy=0;entryX=-0.001;entryY=0.364;entryDx=0;entryDy=0;entryPerimeter=0;" edge="1" parent="1" source="udtV1CsJPvHy8_Dd39ew-1" target="udtV1CsJPvHy8_Dd39ew-2">
          <mxGeometry width="50" height="50" relative="1" as="geometry">
            <mxPoint x="1029.2893135266015" y="500.73122268032705" as="sourcePoint" />
            <mxPoint x="1087.2034790678858" y="442.81696336233637" as="targetPoint" />
            <Array as="points">
              <mxPoint x="950" y="640" />
              <mxPoint x="950" y="115" />
            </Array>
          </mxGeometry>
        </mxCell>
        <mxCell id="udtV1CsJPvHy8_Dd39ew-49" value="" style="endArrow=classic;html=1;rounded=0;exitX=0.5;exitY=0;exitDx=0;exitDy=0;" edge="1" parent="1" source="ACI5QrZLQ97RPdGaOp1O-22">
          <mxGeometry width="50" height="50" relative="1" as="geometry">
            <mxPoint x="660" y="300" as="sourcePoint" />
            <mxPoint x="560" y="200" as="targetPoint" />
            <Array as="points">
              <mxPoint x="893" y="100" />
              <mxPoint x="610" y="100" />
              <mxPoint x="610" y="200" />
            </Array>
          </mxGeometry>
        </mxCell>
        <mxCell id="2zdfMo7DTUwcHvO4mmdk-1" value="" style="endArrow=classic;html=1;rounded=0;exitX=1;exitY=0.5;exitDx=0;exitDy=0;entryX=0.5;entryY=0;entryDx=0;entryDy=0;" edge="1" parent="1" source="udtV1CsJPvHy8_Dd39ew-13" target="udtV1CsJPvHy8_Dd39ew-2">
          <mxGeometry width="50" height="50" relative="1" as="geometry">
            <mxPoint x="1360" y="350" as="sourcePoint" />
            <mxPoint x="1410" y="300" as="targetPoint" />
            <Array as="points">
              <mxPoint x="1760" y="508" />
              <mxPoint x="1760" y="60" />
              <mxPoint x="1115" y="60" />
            </Array>
          </mxGeometry>
        </mxCell>
        <mxCell id="ACI5QrZLQ97RPdGaOp1O-1" value="&lt;font&gt;Start&lt;/font&gt;" style="rounded=1;whiteSpace=wrap;html=1;" vertex="1" parent="1">
          <mxGeometry x="158.1536652312275" y="95.33" width="126.44459120637579" height="41.597647058823526" as="geometry" />
        </mxCell>
        <mxCell id="ACI5QrZLQ97RPdGaOp1O-2" value="&lt;font style=&quot;font-size: 10px;&quot;&gt;Menerima security Patch / VA Scan dari IST&lt;/font&gt;" style="shape=document;whiteSpace=wrap;html=1;boundedLbl=1;" vertex="1" parent="1">
          <mxGeometry x="130.05486718536628" y="178.52529411764704" width="182.64218729809835" height="62.39647058823529" as="geometry" />
        </mxCell>
        <mxCell id="ACI5QrZLQ97RPdGaOp1O-3" value="&lt;font style=&quot;font-size: 10px;&quot;&gt;Assessment&lt;/font&gt;&lt;div&gt;&lt;font style=&quot;font-size: 10px;&quot;&gt;Patch Level&lt;/font&gt;&lt;/div&gt;" style="rounded=0;whiteSpace=wrap;html=1;" vertex="1" parent="1">
          <mxGeometry x="158.1536652312275" y="272.12" width="126.44459120637579" height="41.597647058823526" as="geometry" />
        </mxCell>
        <mxCell id="ACI5QrZLQ97RPdGaOp1O-4" value="&lt;font style=&quot;font-size: 10px;&quot;&gt;impacted&lt;/font&gt;" style="rhombus;whiteSpace=wrap;html=1;" vertex="1" parent="1">
          <mxGeometry x="179.2277637656235" y="344.9158823529412" width="84.29639413758386" height="62.39647058823529" as="geometry" />
        </mxCell>
        <mxCell id="ACI5QrZLQ97RPdGaOp1O-5" value="&lt;font style=&quot;font-size: 10px;&quot;&gt;not affected&lt;/font&gt;&lt;div&gt;&lt;font style=&quot;font-size: 10px;&quot;&gt;(end)&lt;/font&gt;&lt;/div&gt;" style="rounded=1;whiteSpace=wrap;html=1;" vertex="1" parent="1">
          <mxGeometry x="30" y="358.8324448644828" width="86.01052631578946" height="34.56824568600986" as="geometry" />
        </mxCell>
        <mxCell id="ACI5QrZLQ97RPdGaOp1O-7" value="&lt;font style=&quot;font-size: 10px;&quot;&gt;Data Assessment Patch Management&lt;/font&gt;" style="shape=document;whiteSpace=wrap;html=1;boundedLbl=1;" vertex="1" parent="1">
          <mxGeometry x="158.1536652312275" y="452.0298235294117" width="126.44459120637579" height="62.39647058823529" as="geometry" />
        </mxCell>
        <mxCell id="ACI5QrZLQ97RPdGaOp1O-9" value="&lt;font style=&quot;font-size: 10px;&quot;&gt;Scheduling Patching&lt;/font&gt;&lt;div&gt;&lt;font style=&quot;font-size: 10px;&quot;&gt;WAVE (x)&lt;/font&gt;&lt;/div&gt;" style="rounded=0;whiteSpace=wrap;html=1;" vertex="1" parent="1">
          <mxGeometry x="396.99344862104846" y="95.33" width="126.44459120637579" height="41.597647058823526" as="geometry" />
        </mxCell>
        <mxCell id="ACI5QrZLQ97RPdGaOp1O-11" value="&lt;div&gt;&lt;font style=&quot;font-size: 9px;&quot;&gt;- Blast Email jadwal patching UAT &amp;amp; Prod&lt;/font&gt;&lt;/div&gt;&lt;div&gt;&lt;font style=&quot;font-size: 9px;&quot;&gt;- Blast Email jadwal UAT (reminder)&lt;/font&gt;&lt;/div&gt;&lt;div&gt;&lt;font style=&quot;font-size: 9px;&quot;&gt;- Circulate approval patching UAT ke PIC&lt;/font&gt;&lt;/div&gt;" style="shape=document;whiteSpace=wrap;html=1;boundedLbl=1;align=left;" vertex="1" parent="1">
          <mxGeometry x="361.8736842105263" y="163.40185734729064" width="196.69473684210527" height="94.73636150246305" as="geometry" />
        </mxCell>
        <mxCell id="ACI5QrZLQ97RPdGaOp1O-12" value="&lt;font style=&quot;font-size: 10px;&quot;&gt;assessment agent owner&lt;/font&gt;" style="rounded=0;whiteSpace=wrap;html=1;" vertex="1" parent="1">
          <mxGeometry x="396.99344862104846" y="272.12" width="126.44459120637579" height="41.597647058823526" as="geometry" />
        </mxCell>
        <mxCell id="ACI5QrZLQ97RPdGaOp1O-13" value="&lt;font style=&quot;font-size: 10px;&quot;&gt;compatibility&lt;/font&gt;" style="rhombus;whiteSpace=wrap;html=1;" vertex="1" parent="1">
          <mxGeometry x="418.06754715544446" y="344.9158823529412" width="84.29639413758386" height="62.39647058823529" as="geometry" />
        </mxCell>
        <mxCell id="ACI5QrZLQ97RPdGaOp1O-14" value="&lt;font style=&quot;font-size: 10px;&quot;&gt;proses&amp;nbsp;&lt;/font&gt;&lt;div&gt;&lt;font style=&quot;font-size: 10px;&quot;&gt;upgrade agent&lt;/font&gt;&lt;/div&gt;" style="rounded=0;whiteSpace=wrap;html=1;" vertex="1" parent="1">
          <mxGeometry x="565.5894736842105" y="349.5167026500739" width="64.41052631578947" height="53.189203852438425" as="geometry" />
        </mxCell>
        <mxCell id="ACI5QrZLQ97RPdGaOp1O-16" value="&lt;font style=&quot;font-size: 10px;&quot;&gt;Prechecking 1&lt;/font&gt;&lt;div&gt;&lt;font style=&quot;font-size: 10px;&quot;&gt;PID&lt;/font&gt;&lt;/div&gt;" style="shape=document;whiteSpace=wrap;html=1;boundedLbl=1;" vertex="1" parent="1">
          <mxGeometry x="397.00344862104845" y="451.6705882352941" width="126.44459120637579" height="62.39647058823529" as="geometry" />
        </mxCell>
        <mxCell id="ACI5QrZLQ97RPdGaOp1O-17" value="&lt;font style=&quot;font-size: 9px;&quot;&gt;check result&lt;/font&gt;&lt;div&gt;&lt;font style=&quot;font-size: 9px;&quot;&gt;precheck 1&lt;/font&gt;&lt;/div&gt;" style="rhombus;whiteSpace=wrap;html=1;" vertex="1" parent="1">
          <mxGeometry x="412.13684210526316" y="534.7473419121675" width="96.14736842105263" height="73.52594278830048" as="geometry" />
        </mxCell>
        <mxCell id="ACI5QrZLQ97RPdGaOp1O-18" value="&lt;font style=&quot;font-size: 10px;&quot;&gt;email ke custodian untuk housekeep&lt;/font&gt;" style="rounded=0;whiteSpace=wrap;html=1;" vertex="1" parent="1">
          <mxGeometry x="214.3512613229501" y="550.7041288077238" width="126.44459120637579" height="41.597647058823526" as="geometry" />
        </mxCell>
        <mxCell id="ACI5QrZLQ97RPdGaOp1O-46" value="" style="edgeStyle=orthogonalEdgeStyle;rounded=0;orthogonalLoop=1;jettySize=auto;html=1;exitX=0.503;exitY=0.855;exitDx=0;exitDy=0;exitPerimeter=0;" edge="1" parent="1" source="ACI5QrZLQ97RPdGaOp1O-19" target="ACI5QrZLQ97RPdGaOp1O-45">
          <mxGeometry relative="1" as="geometry" />
        </mxCell>
        <mxCell id="ACI5QrZLQ97RPdGaOp1O-19" value="&lt;font style=&quot;font-size: 10px;&quot;&gt;prechecking 2&lt;/font&gt;&lt;div&gt;&lt;font style=&quot;font-size: 10px;&quot;&gt;PID&lt;/font&gt;&lt;/div&gt;" style="shape=document;whiteSpace=wrap;html=1;boundedLbl=1;" vertex="1" parent="1">
          <mxGeometry x="396.98344862104847" y="658.5988235294118" width="126.44459120637579" height="62.39647058823529" as="geometry" />
        </mxCell>
        <mxCell id="ACI5QrZLQ97RPdGaOp1O-25" value="" style="endArrow=classic;html=1;rounded=0;exitX=0.5;exitY=1;exitDx=0;exitDy=0;entryX=0.5;entryY=0;entryDx=0;entryDy=0;" edge="1" parent="1" source="ACI5QrZLQ97RPdGaOp1O-1" target="ACI5QrZLQ97RPdGaOp1O-2">
          <mxGeometry width="50" height="50" relative="1" as="geometry">
            <mxPoint x="382.9440495981178" y="365.71470588235286" as="sourcePoint" />
            <mxPoint x="453.1910447127711" y="313.7176470588235" as="targetPoint" />
          </mxGeometry>
        </mxCell>
        <mxCell id="ACI5QrZLQ97RPdGaOp1O-26" value="" style="endArrow=classic;html=1;rounded=0;exitX=0.5;exitY=0.831;exitDx=0;exitDy=0;exitPerimeter=0;entryX=0.5;entryY=0;entryDx=0;entryDy=0;" edge="1" parent="1" source="ACI5QrZLQ97RPdGaOp1O-2" target="ACI5QrZLQ97RPdGaOp1O-3">
          <mxGeometry width="50" height="50" relative="1" as="geometry">
            <mxPoint x="382.9440495981178" y="365.71470588235286" as="sourcePoint" />
            <mxPoint x="453.1910447127711" y="313.7176470588235" as="targetPoint" />
          </mxGeometry>
        </mxCell>
        <mxCell id="ACI5QrZLQ97RPdGaOp1O-27" value="" style="endArrow=classic;html=1;rounded=0;exitX=0.5;exitY=1;exitDx=0;exitDy=0;entryX=0.5;entryY=0;entryDx=0;entryDy=0;" edge="1" parent="1" source="ACI5QrZLQ97RPdGaOp1O-3" target="ACI5QrZLQ97RPdGaOp1O-4">
          <mxGeometry width="50" height="50" relative="1" as="geometry">
            <mxPoint x="382.9440495981178" y="365.71470588235286" as="sourcePoint" />
            <mxPoint x="453.1910447127711" y="313.7176470588235" as="targetPoint" />
          </mxGeometry>
        </mxCell>
        <mxCell id="ACI5QrZLQ97RPdGaOp1O-28" value="" style="endArrow=classic;html=1;rounded=0;exitX=0;exitY=0.5;exitDx=0;exitDy=0;entryX=1;entryY=0.5;entryDx=0;entryDy=0;" edge="1" parent="1" source="ACI5QrZLQ97RPdGaOp1O-4" target="ACI5QrZLQ97RPdGaOp1O-5">
          <mxGeometry width="50" height="50" relative="1" as="geometry">
            <mxPoint x="382.9440495981178" y="365.71470588235286" as="sourcePoint" />
            <mxPoint x="453.1910447127711" y="313.7176470588235" as="targetPoint" />
          </mxGeometry>
        </mxCell>
        <mxCell id="ACI5QrZLQ97RPdGaOp1O-30" value="NO" style="edgeLabel;html=1;align=center;verticalAlign=middle;resizable=0;points=[];" connectable="0" vertex="1" parent="ACI5QrZLQ97RPdGaOp1O-28">
          <mxGeometry x="-0.073" relative="1" as="geometry">
            <mxPoint as="offset" />
          </mxGeometry>
        </mxCell>
        <mxCell id="ACI5QrZLQ97RPdGaOp1O-29" value="" style="endArrow=classic;html=1;rounded=0;exitX=0.5;exitY=1;exitDx=0;exitDy=0;entryX=0.5;entryY=0;entryDx=0;entryDy=0;" edge="1" parent="1" source="ACI5QrZLQ97RPdGaOp1O-4" target="ACI5QrZLQ97RPdGaOp1O-7">
          <mxGeometry width="50" height="50" relative="1" as="geometry">
            <mxPoint x="382.9440495981178" y="365.71470588235286" as="sourcePoint" />
            <mxPoint x="453.1910447127711" y="313.7176470588235" as="targetPoint" />
          </mxGeometry>
        </mxCell>
        <mxCell id="ACI5QrZLQ97RPdGaOp1O-31" value="YES" style="edgeLabel;html=1;align=center;verticalAlign=middle;resizable=0;points=[];" connectable="0" vertex="1" parent="ACI5QrZLQ97RPdGaOp1O-29">
          <mxGeometry x="-0.3289" relative="1" as="geometry">
            <mxPoint as="offset" />
          </mxGeometry>
        </mxCell>
        <mxCell id="ACI5QrZLQ97RPdGaOp1O-32" value="" style="endArrow=classic;html=1;rounded=0;exitX=1.002;exitY=0.419;exitDx=0;exitDy=0;exitPerimeter=0;entryX=0;entryY=0.5;entryDx=0;entryDy=0;" edge="1" parent="1" source="ACI5QrZLQ97RPdGaOp1O-7" target="ACI5QrZLQ97RPdGaOp1O-9">
          <mxGeometry width="50" height="50" relative="1" as="geometry">
            <mxPoint x="382.9440495981178" y="313.7176470588235" as="sourcePoint" />
            <mxPoint x="453.1910447127711" y="261.7205882352941" as="targetPoint" />
            <Array as="points">
              <mxPoint x="326.74645350639526" y="478.0283529411764" />
              <mxPoint x="326.74645350639526" y="116.12882352941176" />
            </Array>
          </mxGeometry>
        </mxCell>
        <mxCell id="ACI5QrZLQ97RPdGaOp1O-33" value="" style="endArrow=classic;html=1;rounded=0;exitX=0.5;exitY=1;exitDx=0;exitDy=0;entryX=0.5;entryY=0;entryDx=0;entryDy=0;" edge="1" parent="1" source="ACI5QrZLQ97RPdGaOp1O-9" target="ACI5QrZLQ97RPdGaOp1O-11">
          <mxGeometry width="50" height="50" relative="1" as="geometry">
            <mxPoint x="382.9440495981178" y="313.7176470588235" as="sourcePoint" />
            <mxPoint x="482.6315789473684" y="152.8755949581281" as="targetPoint" />
          </mxGeometry>
        </mxCell>
        <mxCell id="ACI5QrZLQ97RPdGaOp1O-34" value="" style="endArrow=classic;html=1;rounded=0;exitX=0.502;exitY=0.86;exitDx=0;exitDy=0;exitPerimeter=0;entryX=0.5;entryY=0;entryDx=0;entryDy=0;" edge="1" parent="1" source="ACI5QrZLQ97RPdGaOp1O-11" target="ACI5QrZLQ97RPdGaOp1O-12">
          <mxGeometry width="50" height="50" relative="1" as="geometry">
            <mxPoint x="382.9440495981178" y="313.7176470588235" as="sourcePoint" />
            <mxPoint x="453.1910447127711" y="261.7205882352941" as="targetPoint" />
          </mxGeometry>
        </mxCell>
        <mxCell id="ACI5QrZLQ97RPdGaOp1O-35" value="" style="endArrow=classic;html=1;rounded=0;exitX=0.5;exitY=1;exitDx=0;exitDy=0;entryX=0.5;entryY=0;entryDx=0;entryDy=0;" edge="1" parent="1" source="ACI5QrZLQ97RPdGaOp1O-12" target="ACI5QrZLQ97RPdGaOp1O-13">
          <mxGeometry width="50" height="50" relative="1" as="geometry">
            <mxPoint x="382.9440495981178" y="438.51058823529405" as="sourcePoint" />
            <mxPoint x="453.1910447127711" y="386.51352941176464" as="targetPoint" />
          </mxGeometry>
        </mxCell>
        <mxCell id="ACI5QrZLQ97RPdGaOp1O-36" value="" style="endArrow=classic;html=1;rounded=0;exitX=1;exitY=0.5;exitDx=0;exitDy=0;entryX=0;entryY=0.5;entryDx=0;entryDy=0;" edge="1" parent="1" source="ACI5QrZLQ97RPdGaOp1O-13" target="ACI5QrZLQ97RPdGaOp1O-14">
          <mxGeometry width="50" height="50" relative="1" as="geometry">
            <mxPoint x="382.9440495981178" y="438.51058823529405" as="sourcePoint" />
            <mxPoint x="453.1910447127711" y="386.51352941176464" as="targetPoint" />
          </mxGeometry>
        </mxCell>
        <mxCell id="ACI5QrZLQ97RPdGaOp1O-40" value="NO" style="edgeLabel;html=1;align=center;verticalAlign=middle;resizable=0;points=[];" connectable="0" vertex="1" parent="ACI5QrZLQ97RPdGaOp1O-36">
          <mxGeometry x="-0.3143" relative="1" as="geometry">
            <mxPoint as="offset" />
          </mxGeometry>
        </mxCell>
        <mxCell id="ACI5QrZLQ97RPdGaOp1O-37" value="" style="endArrow=classic;html=1;rounded=0;exitX=0.5;exitY=1;exitDx=0;exitDy=0;entryX=0.5;entryY=0;entryDx=0;entryDy=0;" edge="1" parent="1" source="ACI5QrZLQ97RPdGaOp1O-13" target="ACI5QrZLQ97RPdGaOp1O-16">
          <mxGeometry width="50" height="50" relative="1" as="geometry">
            <mxPoint x="382.9440495981178" y="438.51058823529405" as="sourcePoint" />
            <mxPoint x="453.1910447127711" y="386.51352941176464" as="targetPoint" />
          </mxGeometry>
        </mxCell>
        <mxCell id="ACI5QrZLQ97RPdGaOp1O-41" value="YES" style="edgeLabel;html=1;align=center;verticalAlign=middle;resizable=0;points=[];" connectable="0" vertex="1" parent="ACI5QrZLQ97RPdGaOp1O-37">
          <mxGeometry x="-0.3429" y="1" relative="1" as="geometry">
            <mxPoint as="offset" />
          </mxGeometry>
        </mxCell>
        <mxCell id="ACI5QrZLQ97RPdGaOp1O-38" value="" style="endArrow=classic;html=1;rounded=0;exitX=0.497;exitY=0.864;exitDx=0;exitDy=0;exitPerimeter=0;" edge="1" parent="1" source="ACI5QrZLQ97RPdGaOp1O-16" target="ACI5QrZLQ97RPdGaOp1O-17">
          <mxGeometry width="50" height="50" relative="1" as="geometry">
            <mxPoint x="382.9440495981178" y="500.90705882352944" as="sourcePoint" />
            <mxPoint x="453.1910447127711" y="448.91" as="targetPoint" />
          </mxGeometry>
        </mxCell>
        <mxCell id="ACI5QrZLQ97RPdGaOp1O-39" value="" style="endArrow=classic;html=1;rounded=0;exitX=0;exitY=0.5;exitDx=0;exitDy=0;entryX=1;entryY=0.5;entryDx=0;entryDy=0;" edge="1" parent="1" source="ACI5QrZLQ97RPdGaOp1O-17" target="ACI5QrZLQ97RPdGaOp1O-18">
          <mxGeometry width="50" height="50" relative="1" as="geometry">
            <mxPoint x="382.9440495981178" y="500.90705882352944" as="sourcePoint" />
            <mxPoint x="453.1910447127711" y="448.91" as="targetPoint" />
          </mxGeometry>
        </mxCell>
        <mxCell id="ACI5QrZLQ97RPdGaOp1O-42" value="NO" style="edgeLabel;html=1;align=center;verticalAlign=middle;resizable=0;points=[];" connectable="0" vertex="1" parent="ACI5QrZLQ97RPdGaOp1O-39">
          <mxGeometry x="-0.1065" relative="1" as="geometry">
            <mxPoint as="offset" />
          </mxGeometry>
        </mxCell>
        <mxCell id="ACI5QrZLQ97RPdGaOp1O-43" value="" style="endArrow=classic;html=1;rounded=0;exitX=0.5;exitY=1;exitDx=0;exitDy=0;entryX=0.5;entryY=0;entryDx=0;entryDy=0;" edge="1" parent="1" source="ACI5QrZLQ97RPdGaOp1O-17" target="ACI5QrZLQ97RPdGaOp1O-19">
          <mxGeometry width="50" height="50" relative="1" as="geometry">
            <mxPoint x="382.9440495981178" y="677.6970588235293" as="sourcePoint" />
            <mxPoint x="453.1910447127711" y="625.6999999999999" as="targetPoint" />
          </mxGeometry>
        </mxCell>
        <mxCell id="o1_TLwKkLksBD2rPDxH1-3" value="YES" style="edgeLabel;html=1;align=center;verticalAlign=middle;resizable=0;points=[];" connectable="0" vertex="1" parent="ACI5QrZLQ97RPdGaOp1O-43">
          <mxGeometry x="-0.184" y="-1" relative="1" as="geometry">
            <mxPoint as="offset" />
          </mxGeometry>
        </mxCell>
        <mxCell id="ACI5QrZLQ97RPdGaOp1O-45" value="&lt;font style=&quot;font-size: 10px;&quot;&gt;Raise CRQ Patching UAT&lt;/font&gt;&lt;div&gt;&lt;font style=&quot;font-size: 10px;&quot;&gt;PID&lt;/font&gt;&lt;/div&gt;" style="rounded=0;whiteSpace=wrap;html=1;" vertex="1" parent="1">
          <mxGeometry x="382.9440495981178" y="760.8923529411765" width="154.54338925223706" height="41.597647058823526" as="geometry" />
        </mxCell>
      </root>
    </mxGraphModel>
  </diagram>
</mxfile>
